<svg version="1.1" id="Layer_1" xmlns="http://www.w3.org/2000/svg" xmlns:xlink="http://www.w3.org/1999/xlink" x="0px" y="0px" width="100%" viewBox="0 0 512 512" enable-background="new 0 0 512 512" xml:space="preserve">
<path fill="#4AD0CC" opacity="1.000000" stroke="none" d="
M1.000003,473.000000 
	C1.000000,349.312439 1.000000,225.624878 1.279207,101.808670 
	C2.319027,100.297409 3.301745,98.990906 3.805690,97.520340 
	C8.527786,83.740700 17.348677,73.656181 30.286234,66.879997 
	C38.915024,62.360577 47.914742,60.246895 57.605255,61.041866 
	C58.123356,58.631901 58.493423,56.575104 59.018536,54.558685 
	C59.587246,52.374836 60.281086,50.222569 60.953766,48.066956 
	C67.654564,26.594267 79.838310,10.130179 102.151878,2.861351 
	C102.590187,2.718569 102.724083,1.641290 103.000000,1.000000 
	C112.020897,1.000000 121.041786,1.000000 130.191620,1.279333 
	C130.949142,2.030931 131.509293,2.721733 132.216431,2.943251 
	C146.885757,7.538507 156.888565,17.639034 165.085892,30.140701 
	C171.250320,39.542042 174.059769,50.078304 176.420914,60.841888 
	C183.597717,60.841888 190.552078,60.841888 197.415878,60.841888 
	C198.637589,56.329693 199.639160,51.931652 201.018188,47.655334 
	C207.858170,26.444746 219.916626,9.985999 242.150070,2.861283 
	C242.587296,2.721169 242.723404,1.641382 243.000000,0.999999 
	C252.020889,1.000000 261.041779,1.000000 270.191620,1.279344 
	C270.949127,2.030942 271.509247,2.721737 272.216370,2.943242 
	C286.885742,7.538427 296.888519,17.639050 305.085907,30.140669 
	C311.250397,39.541996 314.059692,50.078331 316.420898,60.841877 
	C323.597748,60.841877 330.552094,60.841877 337.415894,60.841877 
	C338.637604,56.329662 339.639160,51.931614 341.018188,47.655293 
	C347.858246,26.444721 359.916687,9.985935 382.150146,2.861272 
	C382.587341,2.721174 382.723419,1.641376 383.000000,0.999998 
	C392.020905,1.000000 401.041779,1.000000 410.191620,1.279344 
	C410.949707,2.031021 411.510406,2.721223 412.218109,2.943573 
	C426.889252,7.553172 436.894867,17.651894 445.096558,30.168894 
	C451.262238,39.578590 454.017853,50.136497 456.312012,60.252407 
	C462.257141,61.101250 467.913269,61.289829 473.205017,62.775944 
	C492.005829,68.055893 504.209900,80.530144 510.924408,98.676048 
	C511.259888,99.582581 512.292175,100.231262 513.000000,101.000000 
	C513.000000,224.687561 513.000000,348.375122 512.715698,472.198151 
	C512.053467,472.658325 511.452942,472.914795 511.329407,473.317535 
	C505.452667,492.481903 493.107910,505.197052 473.868195,511.136444 
	C473.428925,511.272064 473.282837,512.357544 473.000000,513.000000 
	C329.312439,513.000000 185.624878,513.000000 41.801819,512.715942 
	C41.341728,512.053894 41.086151,511.456238 40.682621,511.329407 
	C21.618702,505.338776 8.742771,493.146240 2.859318,473.843842 
	C2.728172,473.413635 1.641145,473.274750 1.000003,473.000000 
M308.500000,483.000000 
	C356.657898,483.000000 404.815918,483.061615 452.973511,482.940887 
	C461.241852,482.920166 469.254944,481.396790 475.436157,475.063782 
	C481.458771,468.893250 482.933197,461.034973 482.942932,452.949188 
	C483.037750,374.130127 483.000000,295.310944 483.000000,216.491776 
	C483.000000,214.734177 483.000000,212.976578 483.000000,211.350098 
	C331.950745,211.350098 181.576797,211.350098 31.261499,211.350098 
	C31.140627,212.019501 31.032183,212.339737 31.032122,212.659988 
	C31.016607,293.311920 30.933298,373.964081 31.172491,454.615295 
	C31.188190,459.909180 32.778652,465.649872 35.190399,470.392578 
	C40.452858,480.741180 50.580170,482.925262 61.044422,482.939209 
	C143.196167,483.048889 225.348114,483.000000 308.500000,483.000000 
M460.499969,181.000000 
	C467.927216,181.000000 475.354462,181.000000 482.996185,181.000000 
	C482.996185,159.689407 483.217621,139.040970 482.870850,118.402084 
	C482.756226,111.581322 480.942627,104.875664 476.032928,99.540298 
	C469.893646,92.868752 461.805328,91.125816 453.314362,91.056366 
	C432.319916,90.884636 411.323090,91.000008 390.327240,91.000000 
	C383.686035,91.000000 377.044861,91.000000 370.416138,91.000000 
	C370.203278,100.845383 381.686707,119.896614 398.147064,121.050919 
	C408.948608,121.808395 414.772217,130.651413 411.904938,141.262405 
	C410.778992,145.429123 404.667023,150.709702 400.609741,150.996262 
	C379.689148,152.473984 364.111115,143.117523 351.997101,126.887108 
	C344.076904,116.275620 340.103973,104.002884 337.675293,91.334312 
	C301.641510,91.334312 265.916504,91.334312 230.160233,91.334312 
	C231.330780,102.874847 242.215332,119.717224 258.045227,121.039497 
	C268.983551,121.953163 274.643341,130.390549 271.923676,141.162170 
	C270.888977,145.260239 264.723785,150.700668 260.711487,150.992966 
	C239.787704,152.517242 224.151642,143.177292 212.031509,126.974266 
	C204.107849,116.381348 200.073380,104.101830 197.669876,91.284477 
	C161.709351,91.284477 125.961906,91.284477 88.944450,91.284477 
	C91.149910,96.193733 92.764938,100.573868 95.001564,104.609489 
	C100.206650,114.001205 107.752769,120.419472 118.949921,120.918945 
	C125.015625,121.189537 129.418854,124.348274 130.807922,129.423569 
	C132.042511,133.934341 132.001678,139.805038 130.082504,143.943298 
	C126.784950,151.053696 117.949844,153.144241 107.837837,150.821320 
	C89.215561,146.543396 75.524025,135.649292 67.116203,118.707115 
	C62.787857,109.985298 59.981144,100.508347 56.463924,91.312691 
	C54.117821,91.774887 50.995625,92.014381 48.141464,93.016937 
	C35.433502,97.480743 31.291552,107.770660 31.085815,119.981041 
	C30.763027,139.138489 30.994925,158.305374 31.014715,177.468246 
	C31.015854,178.571106 31.221655,179.673782 31.354609,181.000000 
	C174.264557,181.000000 316.882294,181.000000 460.499969,181.000000 
M122.826416,32.328720 
	C106.985451,30.529135 89.804573,45.481457 90.358406,60.795837 
	C108.100075,60.795837 125.849327,60.795837 143.588745,60.795837 
	C144.123764,51.248863 134.436340,37.932972 122.826416,32.328720 
M271.464813,37.980923 
	C265.294556,31.726782 256.005585,29.174992 247.637619,34.142784 
	C239.231277,39.133362 234.154282,46.796967 231.005188,55.852657 
	C230.472610,57.384190 230.323898,59.049217 229.998138,60.651081 
	C248.406448,60.651081 266.112427,60.651081 284.388275,60.651081 
	C282.257355,51.733231 278.399689,44.414871 271.464813,37.980923 
M384.506927,60.999992 
	C397.595612,60.999992 410.684326,60.999992 424.446655,60.999992 
	C421.610748,49.329205 416.300323,40.066704 406.318573,34.291561 
	C403.255524,32.519356 399.126801,31.872801 395.504333,31.927059 
	C386.955811,32.055103 381.604340,37.853615 377.043243,44.180672 
	C373.523621,49.062965 370.398529,54.296364 370.050812,60.999992 
	C374.903656,60.999992 379.207611,60.999992 384.506927,60.999992 
z" data-index="0" style="opacity: 1;"></path>

<path fill="#000000" opacity="1.000000" stroke="none" d="
M102.531342,1.000000 
	C102.724083,1.641290 102.590187,2.718569 102.151878,2.861351 
	C79.838310,10.130179 67.654564,26.594267 60.953766,48.066956 
	C60.281086,50.222569 59.587246,52.374836 59.018536,54.558685 
	C58.493423,56.575104 58.123356,58.631901 57.605255,61.041866 
	C47.914742,60.246895 38.915024,62.360577 30.286234,66.879997 
	C17.348677,73.656181 8.527786,83.740700 3.805690,97.520340 
	C3.301745,98.990906 2.319027,100.297409 1.279207,101.340012 
	C1.000000,67.739006 1.000000,34.478008 1.000000,1.000000 
	C34.687252,1.000000 68.374969,1.000000 102.531342,1.000000 
z" data-index="2" style="opacity: 1; visibility: hidden;"></path>

<path fill="#000000" opacity="1.000000" stroke="none" d="
M382.531342,0.999998 
	C382.723419,1.641376 382.587341,2.721174 382.150146,2.861272 
	C359.916687,9.985935 347.858246,26.444721 341.018188,47.655293 
	C339.639160,51.931614 338.637604,56.329662 337.415894,60.841877 
	C330.552094,60.841877 323.597748,60.841877 316.420898,60.841877 
	C314.059692,50.078331 311.250397,39.541996 305.085907,30.140669 
	C296.888519,17.639050 286.885742,7.538427 272.216370,2.943242 
	C271.509247,2.721737 270.949127,2.030942 270.660278,1.279344 
	C308.020905,1.000000 345.041779,1.000000 382.531342,0.999998 
z" data-index="4" style="opacity: 1; visibility: hidden;"></path>

<path fill="#000000" opacity="1.000000" stroke="none" d="
M473.468658,513.000000 
	C473.282837,512.357544 473.428925,511.272064 473.868195,511.136444 
	C493.107910,505.197052 505.452667,492.481903 511.329407,473.317535 
	C511.452942,472.914795 512.053467,472.658325 512.715698,472.666809 
	C513.000000,486.259979 513.000000,499.519989 513.000000,513.000000 
	C499.979919,513.000000 486.958618,513.000000 473.468658,513.000000 
z" data-index="6" style="opacity: 1; visibility: hidden;"></path>

<path fill="#000000" opacity="1.000000" stroke="none" d="
M460.000000,181.000000 
	C316.882294,181.000000 174.264557,181.000000 31.354609,181.000000 
	C31.221655,179.673782 31.015854,178.571106 31.014715,177.468246 
	C30.994925,158.305374 30.763027,139.138489 31.085815,119.981041 
	C31.291552,107.770660 35.433502,97.480743 48.141464,93.016937 
	C50.995625,92.014381 54.117821,91.774887 56.463924,91.312691 
	C59.981144,100.508347 62.787857,109.985298 67.116203,118.707115 
	C75.524025,135.649292 89.215561,146.543396 107.837837,150.821320 
	C117.949844,153.144241 126.784950,151.053696 130.082504,143.943298 
	C132.001678,139.805038 132.042511,133.934341 130.807922,129.423569 
	C129.418854,124.348274 125.015625,121.189537 118.949921,120.918945 
	C107.752769,120.419472 100.206650,114.001205 95.001564,104.609489 
	C92.764938,100.573868 91.149910,96.193733 88.944450,91.284477 
	C125.961906,91.284477 161.709351,91.284477 197.669876,91.284477 
	C200.073380,104.101830 204.107849,116.381348 212.031509,126.974266 
	C224.151642,143.177292 239.787704,152.517242 260.711487,150.992966 
	C264.723785,150.700668 270.888977,145.260239 271.923676,141.162170 
	C274.643341,130.390549 268.983551,121.953163 258.045227,121.039497 
	C242.215332,119.717224 231.330780,102.874847 230.160233,91.334312 
	C265.916504,91.334312 301.641510,91.334312 337.675293,91.334312 
	C340.103973,104.002884 344.076904,116.275620 351.997101,126.887108 
	C364.111115,143.117523 379.689148,152.473984 400.609741,150.996262 
	C404.667023,150.709702 410.778992,145.429123 411.904938,141.262405 
	C414.772217,130.651413 408.948608,121.808395 398.147064,121.050919 
	C381.686707,119.896614 370.203278,100.845383 370.416138,91.000000 
	C377.044861,91.000000 383.686035,91.000000 390.327240,91.000000 
	C411.323090,91.000008 432.319916,90.884636 453.314362,91.056366 
	C461.805328,91.125816 469.893646,92.868752 476.032928,99.540298 
	C480.942627,104.875664 482.756226,111.581322 482.870850,118.402084 
	C483.217621,139.040970 482.996185,159.689407 482.996185,181.000000 
	C475.354462,181.000000 467.927216,181.000000 460.000000,181.000000 
z" data-index="8" style="opacity: 1; visibility: hidden;"></path>

<path fill="#000000" opacity="1.000000" stroke="none" d="
M271.716736,38.237488 
	C278.399689,44.414871 282.257355,51.733231 284.388275,60.651081 
	C266.112427,60.651081 248.406448,60.651081 229.998138,60.651081 
	C230.323898,59.049217 230.472610,57.384190 231.005188,55.852657 
	C234.154282,46.796967 239.231277,39.133362 247.637619,34.142784 
	C256.005585,29.174992 265.294556,31.726782 271.716736,38.237488 
z" data-index="10" style="opacity: 1; visibility: hidden;"></path>

<path fill="#4AD0CC" opacity="1.000000" stroke="none" d="
M173.139984,444.406738 
	C172.663452,442.784454 172.052963,441.548126 172.044662,440.307770 
	C171.969955,429.145416 171.227982,417.915741 172.183014,406.835175 
	C173.597794,390.420532 179.943665,375.518433 190.709549,363.044434 
	C197.054031,355.693329 204.776688,349.531708 212.059616,342.665314 
	C199.291779,329.424103 195.136017,312.112854 197.160522,293.362030 
	C198.798279,278.193390 206.209549,265.505859 217.897888,255.668945 
	C240.348740,236.774277 274.250488,237.011688 296.325348,255.891083 
	C322.251678,278.064392 324.593903,317.745758 301.203857,343.741852 
	C316.728180,353.195282 328.099762,366.282074 335.426422,382.888977 
	C339.336639,391.752106 341.820160,400.978210 341.968567,410.699646 
	C342.113495,420.194183 342.030365,429.692841 341.989746,439.189453 
	C341.960358,446.060577 336.066986,451.985352 329.194214,451.988434 
	C281.043915,452.010101 232.893600,451.976654 184.743362,452.031799 
	C179.259506,452.038086 176.272888,448.515900 173.139984,444.406738 
M219.501495,422.000000 
	C250.240723,422.000000 280.979950,422.000000 311.692444,422.000000 
	C311.978394,397.719452 302.365814,379.012970 281.075745,368.273346 
	C261.856873,358.578583 242.157074,360.434631 224.717575,373.255493 
	C208.680252,385.045532 201.836914,401.839386 202.410370,422.000000 
	C207.894669,422.000000 213.198471,422.000000 219.501495,422.000000 
M260.217834,273.000610 
	C256.771149,273.195526 253.251251,273.008698 249.890839,273.653351 
	C237.299561,276.068878 227.027954,288.863800 227.869858,303.199005 
	C228.528900,314.420441 233.504044,322.718231 242.978714,327.842010 
	C252.267151,332.865204 262.379059,332.682526 271.629395,327.595703 
	C282.479431,321.629242 288.750244,307.658417 285.839905,296.065735 
	C282.844604,284.134613 275.354370,275.220520 260.217834,273.000610 
z" data-index="12" style="opacity: 1;"></path>

<path fill="#000000" opacity="1.000000" stroke="none" d="
M260.672180,273.000763 
	C275.354370,275.220520 282.844604,284.134613 285.839905,296.065735 
	C288.750244,307.658417 282.479431,321.629242 271.629395,327.595703 
	C262.379059,332.682526 252.267151,332.865204 242.978714,327.842010 
	C233.504044,322.718231 228.528900,314.420441 227.869858,303.199005 
	C227.027954,288.863800 237.299561,276.068878 249.890839,273.653351 
	C253.251251,273.008698 256.771149,273.195526 260.672180,273.000763 
z" data-index="14" style="opacity: 1; visibility: hidden;"></path>
</svg>