<svg version="1.1" id="Layer_1" xmlns="http://www.w3.org/2000/svg" xmlns:xlink="http://www.w3.org/1999/xlink" x="0px" y="0px" width="100%" viewBox="0 0 512 512" enable-background="new 0 0 512 512" xml:space="preserve">

<path fill="#4AD0CC" opacity="1.000000" stroke="none" d="
M321.612000,277.265930 
	C332.439941,282.601990 343.032501,287.507141 353.300568,293.017059 
	C356.143707,294.542694 357.134247,293.363037 358.666779,291.830505 
	C372.335236,278.161774 385.997559,264.486908 399.676849,250.829071 
	C413.344025,237.183273 427.028656,223.554977 441.294373,209.332047 
	C439.188751,209.188431 437.808319,209.014954 436.427582,209.012527 
	C424.262634,208.991104 412.097565,209.005264 399.932556,208.998367 
	C391.131439,208.993362 385.658905,202.918518 384.836304,194.333511 
	C383.841003,183.946198 392.099213,176.495667 402.333618,176.764496 
	C428.978271,177.464462 455.653564,176.994293 482.316620,177.003067 
	C490.741699,177.005829 496.990570,183.148544 496.994751,191.459091 
	C497.008636,219.122025 497.007782,246.784973 496.995636,274.447906 
	C496.991669,283.466492 490.670197,289.004456 480.451508,289.000031 
	C471.182068,288.996063 465.011475,283.152222 465.003265,274.332733 
	C464.990662,260.750000 464.999908,247.167252 464.999908,233.584503 
	C464.498627,233.248825 463.997345,232.913147 463.496063,232.577469 
	C462.844940,233.706009 462.401367,235.041550 461.512451,235.932953 
	C435.271515,262.246033 409.031158,288.560181 382.639679,314.721832 
	C379.961670,317.376495 379.836334,319.105103 381.947327,322.105469 
	C392.439209,337.017365 399.143341,353.698853 400.783600,371.727203 
	C403.563110,402.277100 396.955841,430.604980 377.397461,455.131561 
	C360.325928,476.539581 338.392822,490.466949 311.693085,495.803467 
	C279.181580,502.301605 248.922852,495.825775 221.901886,476.308899 
	C201.501328,461.573853 188.163376,441.836700 180.753754,417.708649 
	C176.468811,403.755585 174.885651,389.579926 176.211349,375.360413 
	C178.319717,352.745728 186.371323,332.266022 200.954727,314.387512 
	C215.027664,297.134827 232.427170,284.911041 253.449890,278.098816 
	C275.844086,270.842224 298.554443,271.023956 321.612000,277.265930 
M335.009399,320.488434 
	C316.982452,307.830994 297.126770,303.223999 275.387970,306.991669 
	C254.667496,310.582794 237.506165,320.675232 225.338882,337.597504 
	C208.587280,360.895721 204.983276,386.726624 215.108673,413.808929 
	C222.460983,433.474030 236.241135,447.780670 255.021362,456.859558 
	C270.487671,464.336426 287.061218,466.322784 303.903168,462.906097 
	C324.291077,458.770081 340.992462,448.508545 353.271698,431.372681 
	C366.576324,412.805908 371.075012,392.131165 366.829315,369.991455 
	C362.953125,349.778534 352.730957,333.003754 335.009399,320.488434 
z" data-index="1" style="opacity: 1;"></path>
<path fill="#4AD0CC" opacity="1.000000" stroke="none" d="
M117.697548,94.732605 
	C121.594368,81.543579 127.886047,70.003693 136.039154,59.548611 
	C152.950897,37.861916 175.011124,23.566935 201.856552,18.261341 
	C235.148209,11.681746 265.991425,18.359577 293.573944,38.961048 
	C312.428589,53.043663 325.298706,71.440567 332.531311,93.418510 
	C341.141266,119.582016 340.307526,145.955276 329.718506,171.573334 
	C318.149139,199.563187 298.305542,219.744659 270.600861,232.034698 
	C257.823792,237.702698 244.451477,240.549484 230.382202,241.137634 
	C211.490356,241.927399 193.576706,238.509949 176.512146,230.694794 
	C171.087463,228.210419 166.248993,224.470978 160.973663,221.617615 
	C159.679199,220.917465 156.997940,220.704987 156.175949,221.512238 
	C137.287659,240.062592 118.568718,258.785370 99.302498,277.990143 
	C106.726776,285.353882 113.882172,292.482300 121.074081,299.573669 
	C126.313591,304.739929 128.052841,310.857544 125.622650,317.804199 
	C123.203072,324.720520 117.473763,328.534393 110.741158,328.621033 
	C106.523132,328.675354 101.498497,326.229279 98.173378,323.356720 
	C90.506966,316.733734 83.656326,309.166504 76.184227,301.691711 
	C75.027031,302.716248 73.902122,303.613800 72.889595,304.623993 
	C63.572205,313.919830 54.211048,323.173096 44.993313,332.567017 
	C39.039566,338.634552 27.722845,339.564667 21.296326,333.072693 
	C14.308535,326.013763 14.935014,315.531860 21.412077,309.066315 
	C31.654409,298.842163 41.871033,288.592316 52.519848,277.931549 
	C44.955212,270.395264 37.685841,262.893127 30.124828,255.697418 
	C23.281996,249.185181 24.130737,232.562408 35.402630,228.917969 
	C41.027843,227.099213 49.177204,227.287079 53.792957,232.188248 
	C60.858509,239.690689 68.277863,246.859924 75.770027,254.394836 
	C77.087883,253.204346 78.206779,252.278748 79.229561,251.256958 
	C96.555435,233.947754 113.839684,216.596680 131.220093,199.342468 
	C133.640427,196.939713 134.370895,195.652832 131.946594,192.116379 
	C122.484009,178.312881 116.217903,163.052826 113.995407,146.309418 
	C111.697334,128.996689 112.551865,111.899719 117.697548,94.732605 
M303.074280,116.392296 
	C300.044434,95.051178 289.352783,77.936310 272.393066,65.344643 
	C254.141998,51.794228 233.214554,46.950859 210.561752,51.002766 
	C190.200974,54.644695 173.712418,65.051575 161.456985,81.350060 
	C147.884430,99.400208 143.233368,120.032204 146.955963,142.485397 
	C150.407135,163.301392 160.720749,180.132751 177.391190,192.574829 
	C195.617172,206.177948 216.455902,210.958862 238.990387,206.970657 
	C259.483276,203.343781 276.321838,193.131989 288.645508,176.516708 
	C301.661652,158.967697 306.221222,138.838791 303.074280,116.392296 
z" data-index="2" style="opacity: 1;"></path>

<path fill="#000000" opacity="1.000000" stroke="none" d="
M303.340851,116.758781 
	C306.221222,138.838791 301.661652,158.967697 288.645508,176.516708 
	C276.321838,193.131989 259.483276,203.343781 238.990387,206.970657 
	C216.455902,210.958862 195.617172,206.177948 177.391190,192.574829 
	C160.720749,180.132751 150.407135,163.301392 146.955963,142.485397 
	C143.233368,120.032204 147.884430,99.400208 161.456985,81.350060 
	C173.712418,65.051575 190.200974,54.644695 210.561752,51.002766 
	C233.214554,46.950859 254.141998,51.794228 272.393066,65.344643 
	C289.352783,77.936310 300.044434,95.051178 303.340851,116.758781 
z" data-index="4" style="opacity: 1; visibility: hidden;"></path>
</svg>