<svg version="1.1" id="Layer_1" xmlns="http://www.w3.org/2000/svg" xmlns:xlink="http://www.w3.org/1999/xlink" x="0px" y="0px" width="100%" viewBox="0 0 500 500" xml:space="preserve">

<path fill="#50CDCA" opacity="1.000000" stroke="none" d="
M334.031311,334.070984 
	C332.640289,335.920074 331.572449,338.187042 329.807190,339.552094 
	C315.819153,350.368988 309.653137,364.632690 309.922607,382.161682 
	C310.186340,399.319061 309.975861,416.483704 309.973541,433.645172 
	C309.973328,435.272217 309.973511,436.899261 309.973511,438.748932 
	C306.842010,438.748932 304.113037,438.748932 301.005585,438.748932 
	C301.005585,418.306183 301.303406,398.013733 300.894440,377.735504 
	C300.647034,365.465820 303.699097,354.459839 311.114197,344.852417 
	C314.646545,340.275726 319.066345,336.371826 323.177216,332.256104 
	C335.657379,319.761200 348.354889,307.477722 360.618011,294.774231 
	C366.727570,288.445282 380.484192,286.236786 389.857605,293.368469 
	C396.572784,298.477661 399.974884,311.561218 394.964630,319.209869 
	C390.918121,325.387329 385.362671,330.874237 379.555969,335.515656 
	C373.949860,339.996765 371.216614,344.921417 372.023285,351.921082 
	C372.558838,356.568268 378.640625,358.741241 384.015839,355.953796 
	C395.073608,350.219696 406.032867,344.295959 417.057526,338.497589 
	C421.092072,336.375671 425.102264,334.160309 429.299438,332.409149 
	C432.832031,330.935242 434.119385,328.698273 434.080292,324.920990 
	C433.932007,310.593597 434.465393,296.245331 433.864960,281.941772 
	C433.523895,273.817078 441.933105,264.239960 447.975647,262.951416 
	C458.706177,260.663116 466.142273,264.443970 471.284790,273.192139 
	C473.600739,277.131958 473.974518,280.772369 473.976990,284.854767 
	C473.988037,303.182556 473.781616,321.513519 474.072601,339.836731 
	C474.213837,348.728821 470.049408,354.567047 462.949097,359.027802 
	C442.771210,371.704590 422.970612,385.034729 402.320770,396.886749 
	C390.732056,403.538116 387.160431,412.646912 387.955841,424.874603 
	C388.171661,428.192657 387.982697,431.537079 387.980103,434.869385 
	C387.979187,436.018555 387.979980,437.167694 387.979980,438.953827 
	C385.511597,438.953827 383.259552,438.953827 380.529907,438.440186 
	C380.029877,432.477997 379.973511,427.029327 379.995270,421.580933 
	C380.014771,416.697540 380.120270,411.814453 380.187836,406.931244 
	C383.544586,396.739319 392.270325,391.994720 400.570740,386.798889 
	C420.246643,374.482300 440.056488,362.366791 459.412231,349.565308 
	C462.364441,347.612732 464.630493,342.479706 464.744507,338.742401 
	C465.297729,320.604767 465.069702,302.441223 464.988739,284.287415 
	C464.957916,277.375336 462.225983,273.227356 457.487518,272.010712 
	C448.396149,269.676331 442.953217,277.137482 442.972198,284.853851 
	C443.007843,299.343994 442.832886,313.836487 443.052124,328.323364 
	C443.133331,333.689514 440.644745,336.968567 436.271667,339.297058 
	C420.683533,347.597076 404.962524,355.657288 389.533051,364.241913 
	C380.494629,369.270660 372.725800,366.548950 367.776276,362.265717 
	C361.826172,357.116577 360.055725,347.704041 363.330475,340.188538 
	C363.960724,338.742065 365.111115,337.453766 366.236938,336.303284 
	C371.827393,330.590424 377.535278,324.992249 383.112946,319.267120 
	C387.629486,314.631195 388.860504,308.243134 386.264526,303.840790 
	C381.873291,296.393982 374.924866,295.641235 366.217560,302.027771 
	C365.453522,302.585754 365.221710,302.842560 364.989868,303.099396 
	C364.989868,303.099396 364.994171,302.986481 364.840790,303.147461 
	C364.455719,303.570953 364.224030,303.833435 363.992340,304.095947 
	C363.992340,304.095947 363.990906,303.992493 363.834778,304.154480 
	C363.449829,304.583557 363.220978,304.850647 362.992126,305.117737 
	C362.992157,305.117737 362.987518,304.994232 362.840149,305.156067 
	C362.458618,305.583893 362.224487,305.849884 361.990326,306.115875 
	C361.990326,306.115875 361.989960,305.989746 361.842896,306.152222 
	C361.460449,306.578735 361.225067,306.842804 360.989685,307.106903 
	C360.989685,307.106903 360.989166,306.989777 360.839111,307.152496 
	C360.456177,307.580048 360.223297,307.844879 359.990417,308.109711 
	C359.990417,308.109711 359.989258,307.990479 359.839844,308.153137 
	C359.457092,308.581085 359.223755,308.846375 358.990417,309.111694 
	C358.990448,309.111694 358.989380,308.990509 358.840576,309.153198 
	C358.457977,309.581299 358.224182,309.846680 357.990356,310.112061 
	C357.990356,310.112061 357.989777,309.990173 357.841064,310.152527 
	C357.458313,310.579651 357.224243,310.844421 356.990173,311.109161 
	C356.990173,311.109161 357.024536,311.005554 356.766724,311.103821 
	C356.019592,311.843506 355.530243,312.484924 355.040894,313.126312 
	C355.040894,313.126312 355.005493,313.024078 354.847168,313.169250 
	C354.456268,313.579895 354.223694,313.845398 353.991089,314.110870 
	C353.991089,314.110870 353.990021,313.990997 353.840515,314.152832 
	C353.458038,314.579620 353.225067,314.844574 352.992126,315.109497 
	C352.992126,315.109497 353.029663,315.003174 352.745728,315.125793 
	C351.979645,316.242615 351.497498,317.236847 351.015381,318.231049 
	C351.020782,318.533173 350.894409,318.762817 350.051941,318.969299 
	C346.003723,319.634216 344.139160,321.662567 343.996613,325.212067 
	C344.003571,325.521362 343.873962,325.754883 343.081665,326.029724 
	C342.047455,326.795959 341.539398,327.444977 341.031311,328.093994 
	C341.031311,328.093994 341.026306,328.027374 340.691711,328.036072 
	C338.910797,329.718903 337.464478,331.393066 336.018158,333.067200 
	C336.018158,333.067200 336.003906,333.006805 335.747223,333.072449 
	C335.004120,333.449036 334.517700,333.760010 334.031311,334.070984 
z" data-index="0" style="opacity: 1; visibility: visible; fill: rgb(27, 197, 205); stroke: rgb(27, 197, 205);"></path>
<path fill="#51CECB" opacity="1.000000" stroke="none" d="
M121.804062,409.074829 
	C121.804062,409.074829 121.944550,409.482483 121.979462,410.170135 
	C122.012138,418.311584 122.206757,425.774231 121.871559,433.213013 
	C121.785942,435.112885 120.022621,436.937134 119.030121,438.796143 
	C117.539604,438.863708 116.049088,438.931274 114.006592,439.023865 
	C114.006592,433.063660 113.834229,427.263855 114.043823,421.477875 
	C114.434883,410.682709 109.914146,402.892090 100.701752,397.283508 
	C79.915886,384.628937 59.248417,371.777985 38.623909,358.861389 
	C31.537317,354.423218 27.828548,348.073090 27.935699,339.340088 
	C28.174911,319.843811 27.941881,300.342224 28.045139,280.843567 
	C28.087475,272.849182 32.183945,267.243225 39.332920,263.963348 
	C46.510830,260.670197 52.884609,261.693176 59.467552,266.547089 
	C66.030663,271.386383 68.154793,277.309723 68.035614,284.976166 
	C67.823227,298.638947 68.072166,312.308533 67.912529,325.972748 
	C67.874237,329.250244 69.004807,331.119263 71.924721,332.497803 
	C79.243042,335.952942 86.486443,339.572113 93.696579,343.249603 
	C101.515656,347.237732 109.251091,351.389465 117.046082,355.425293 
	C122.116814,358.050659 126.532791,357.511505 128.977493,354.066895 
	C131.120453,351.047424 130.249557,343.864105 127.242828,340.810028 
	C121.867653,335.350250 116.709076,329.627960 110.932358,324.624573 
	C102.647659,317.448944 103.117203,302.275757 109.488045,295.142426 
	C115.617111,288.279846 131.428574,285.933014 138.588364,293.074371 
	C149.840485,304.297546 160.949219,315.671997 172.441925,326.643768 
	C180.108109,333.962494 188.010376,340.937714 193.688416,350.084106 
	C198.165085,357.295288 200.907974,364.957397 200.950211,373.414520 
	C201.058334,395.064026 200.986282,416.714447 200.986282,438.671448 
	C198.106842,438.671448 195.373566,438.671448 192.014725,438.671448 
	C192.014725,437.015717 192.014801,435.247345 192.014709,433.479004 
	C192.013824,416.646332 191.723328,399.807373 192.090485,382.982727 
	C192.486130,364.853455 185.429092,350.818176 171.920654,338.777374 
	C159.203110,327.441620 147.842026,314.585602 135.855972,302.426239 
	C133.296539,299.829803 130.565735,297.949615 126.495399,297.870575 
	C121.264847,297.769012 117.498299,299.467712 115.369576,304.223175 
	C112.937775,309.655731 113.762939,313.622162 118.115501,318.443756 
	C124.323433,325.320709 131.243011,331.597473 137.041382,338.789520 
	C142.446777,345.494141 140.807663,354.090363 133.757126,362.672272 
	C130.599060,366.516266 121.674301,368.321014 116.043655,365.427673 
	C98.602913,356.465759 81.324722,347.186432 64.018951,337.963684 
	C60.343426,336.004852 58.904194,332.845703 58.955639,328.579010 
	C59.126431,314.414917 59.067699,300.247406 59.005291,286.081573 
	C58.982986,281.018860 58.119717,275.899109 53.343895,273.224182 
	C46.185635,269.214874 37.621761,271.501007 37.184578,283.096771 
	C36.456745,302.401642 36.806267,321.757019 37.128422,341.084015 
	C37.201611,345.474670 39.774635,348.658661 44.206528,351.253784 
	C59.285336,360.083252 73.964783,369.610687 88.612869,379.153839 
	C97.548386,384.975281 106.321632,391.085266 114.794098,397.554962 
	C117.478111,399.604523 118.955116,403.234741 121.031296,406.799500 
	C121.320099,407.996552 121.562088,408.535675 121.804062,409.074829 
z" data-index="1" style="opacity: 1; visibility: visible; fill: rgb(27, 197, 205); stroke: rgb(27, 197, 205);"></path>
<path fill="#4BCDCB" opacity="1.000000" stroke="none" d="
M418.168030,150.931198 
	C418.728241,141.289398 412.821533,138.108200 403.677063,138.059875 
	C370.134369,137.882629 336.590179,137.986786 303.046570,137.985046 
	C301.244385,137.984955 299.442230,137.985046 297.060211,137.985046 
	C297.060211,135.415390 297.060211,133.160141 297.583649,130.452606 
	C335.439728,129.997284 372.772369,129.994232 410.105011,129.991165 
	C418.547729,128.980606 427.161255,140.515564 427.123505,148.476898 
	C426.859558,204.122147 426.994629,259.769257 426.942474,315.415741 
	C426.940704,317.321136 426.628662,319.354828 425.918762,321.109192 
	C422.516479,329.516724 414.894775,335.990021 401.290985,333.622162 
	C401.290985,330.952911 401.290985,328.224945 401.290985,326.568481 
	C406.325409,324.619171 411.166382,323.321564 415.314850,320.857941 
	C417.001801,319.856110 417.183533,316.319672 418.313782,313.153442 
	C418.716675,310.889801 418.977020,309.409271 418.977631,307.928589 
	C418.998596,257.194244 419.002502,206.459885 418.960144,155.725555 
	C418.958832,154.127213 418.443634,152.529297 418.168030,150.931198 
z" data-index="2" style="opacity: 1; visibility: visible; fill: rgb(27, 197, 205); stroke: rgb(27, 197, 205);"></path>
<path fill="#4BCECB" opacity="1.000000" stroke="none" d="
M87.044708,141.107071 
	C87.012260,141.449173 86.851418,141.712982 86.123703,142.109085 
	C85.465942,142.575409 85.246666,142.831177 85.027390,143.086945 
	C85.027390,143.086945 85.018898,143.021225 84.705246,143.170532 
	C83.596123,146.612778 82.116623,149.903778 82.107452,153.198898 
	C81.961975,205.449600 81.981216,257.700897 82.082680,309.951782 
	C82.087242,312.304413 83.227364,314.654785 83.838562,317.006226 
	C87.158150,324.036102 93.111343,325.760712 100.610863,324.899323 
	C100.610863,327.855835 100.610863,330.583435 100.610863,333.353821 
	C89.040474,336.368713 79.459618,330.595001 75.669174,320.160126 
	C75.185066,318.827393 75.029282,317.309143 75.028557,315.876678 
	C75.000641,260.378021 75.006042,204.879349 75.013832,149.380692 
	C75.015320,138.824799 80.115303,132.393921 90.459923,129.811661 
	C91.075165,129.658081 91.641335,129.307953 92.982048,129.300110 
	C95.046967,129.700592 96.360184,129.980988 97.673378,129.980835 
	C133.104950,129.976547 168.536514,129.943481 203.968094,129.915283 
	C204.419556,132.366547 204.871033,134.817810 205.454208,137.984177 
	C202.772827,137.984177 200.827652,137.983932 198.882477,137.984192 
	C168.471924,137.988297 138.061218,137.941635 107.650993,138.042908 
	C102.088707,138.061432 96.528427,138.682327 90.333420,138.915375 
	C89.154015,139.234634 88.608414,139.663696 88.062813,140.092773 
	C88.062813,140.092773 88.039101,140.029083 87.864578,140.176056 
	C87.474937,140.584366 87.259827,140.845718 87.044708,141.107071 
z" data-index="3" style="opacity: 1; visibility: visible; fill: rgb(27, 197, 205); stroke: rgb(27, 197, 205);"></path>
<path fill="#4CCDCA" opacity="1.000000" stroke="none" d="
M92.011650,123.123116 
	C89.579895,123.775482 87.046959,124.179466 84.733353,125.121895 
	C72.737869,130.008163 68.147255,139.858887 68.062492,151.936325 
	C67.834511,184.418701 67.984253,216.903732 67.984032,249.387711 
	C67.984024,251.366882 67.984024,253.346039 67.984024,255.673752 
	C65.019058,255.673752 62.295879,255.673752 59.236721,255.673752 
	C59.162979,254.268768 59.021214,252.822052 59.020748,251.375305 
	C59.009502,216.225983 59.016327,181.076675 59.012699,145.927353 
	C59.011532,134.591385 68.652344,122.037415 79.133133,117.664177 
	C86.926292,114.412399 94.568611,113.983337 102.586708,113.993858 
	C136.070038,114.037773 169.553436,114.029785 203.516556,114.539093 
	C204.029449,121.979721 204.029449,122.008873 197.176559,122.010506 
	C164.367950,122.018349 131.559280,121.987152 98.750816,122.053909 
	C96.503716,122.058487 94.258003,122.750694 92.011650,123.123116 
z" data-index="4" style="opacity: 1; visibility: visible; fill: rgb(27, 197, 205); stroke: rgb(27, 197, 205);"></path>
<path fill="#4CCDCA" opacity="1.000000" stroke="none" d="
M297.190521,121.969162 
	C297.190521,119.504570 297.190521,117.039978 297.190521,114.016335 
	C299.124542,114.016335 300.906708,114.016449 302.688843,114.016319 
	C337.490936,114.013771 372.294586,114.210953 407.094482,113.932861 
	C427.606720,113.768951 443.615509,133.135971 443.214783,150.163895 
	C442.427643,183.615265 442.985107,217.098267 442.986267,250.568192 
	C442.986298,252.197433 442.986298,253.826675 442.986298,255.725006 
	C439.978607,255.725006 437.371979,255.725006 434.019440,255.725006 
	C434.019440,253.915833 434.019470,251.995407 434.019440,250.074982 
	C434.018646,217.437607 434.248016,184.797852 433.910400,152.163956 
	C433.763306,137.946686 428.566620,129.789902 415.292877,124.107407 
	C413.843567,123.486938 411.973480,123.849304 409.800873,123.203613 
	C406.511078,122.431953 403.719269,122.025581 400.926849,122.021431 
	C366.348114,121.969978 331.769318,121.977119 297.190521,121.969162 
z" data-index="5" style="opacity: 1; visibility: visible; fill: rgb(27, 197, 205); stroke: rgb(27, 197, 205);"></path>
<path fill="#4FCECB" opacity="1.000000" stroke="none" d="
M221.840225,149.005966 
	C221.286362,148.570053 220.732513,148.134140 219.948227,147.210724 
	C219.451218,146.484711 219.184616,146.246201 218.918015,146.007690 
	C218.918015,146.007690 218.966248,146.058258 218.978882,145.679993 
	C217.986618,138.983429 216.352097,132.688995 216.111603,126.341759 
	C215.651596,114.200600 215.984711,102.029381 215.988678,89.870636 
	C216.365326,69.463310 239.570175,56.106735 255.934662,59.624374 
	C272.395264,63.162682 282.040131,72.300522 286.347015,87.918373 
	C287.072754,90.550110 286.793365,93.459038 286.718323,96.993576 
	C286.309052,108.102203 286.087891,118.456909 286.054810,128.812210 
	C286.045044,131.889435 286.563965,134.968353 286.840637,138.046494 
	C284.704437,147.866348 274.745239,154.553467 266.324371,154.124252 
	C255.538208,153.574448 244.689804,154.286438 233.896591,153.810699 
	C230.445007,153.658569 227.083649,151.458710 223.180054,149.850327 
	C222.412720,149.316284 222.133087,149.149994 221.840225,149.005966 
M249.711197,68.066299 
	C247.497528,68.539276 245.164688,68.711830 243.089859,69.534821 
	C231.156204,74.268425 224.542526,83.160995 224.084549,95.959846 
	C223.655914,107.938644 223.635147,119.958839 224.112823,131.933777 
	C224.428864,139.856522 228.327240,145.742950 237.768875,145.125229 
	C246.062668,144.582596 254.438126,144.662735 262.744324,145.099167 
	C272.314117,145.601974 277.926453,140.076447 277.993683,129.673080 
	C278.063629,118.845566 278.214966,108.011322 277.902924,97.192360 
	C277.787964,93.207077 277.021912,89.032784 275.566284,85.332809 
	C271.159210,74.130768 262.076294,69.206879 249.711197,68.066299 
z" data-index="6" style="opacity: 1; visibility: visible; fill: rgb(27, 197, 205); stroke: rgb(27, 197, 205);"></path>
<path fill="#4DCDCA" opacity="1.000000" stroke="none" d="
M349.832703,196.065659 
	C358.037842,208.354370 366.220886,220.657913 374.457794,232.925293 
	C378.373352,238.756805 382.391602,244.519333 387.019653,251.270508 
	C387.019653,241.071777 387.018890,231.988831 387.019867,222.905899 
	C387.020782,214.077606 387.196960,205.244217 386.938599,196.423553 
	C386.837708,192.979874 388.438141,192.136978 391.250366,192.045242 
	C394.240051,191.947723 395.973480,193.261688 395.974182,196.395996 
	C395.979370,219.716034 396.021057,243.036377 395.866516,266.355408 
	C395.856689,267.839264 394.603882,270.088928 393.376007,270.570038 
	C392.180969,271.038300 389.642273,270.177582 388.782410,269.061523 
	C383.035248,261.601654 377.355347,254.068817 372.082581,246.269653 
	C364.565826,235.151276 357.416992,223.784134 348.978546,212.819809 
	C348.978546,217.356598 348.978699,221.893372 348.978485,226.430161 
	C348.977875,239.589325 348.832092,252.751038 349.062988,265.906128 
	C349.134186,269.962524 347.481506,271.214539 343.339417,270.610840 
	C342.186035,269.852234 341.554474,269.441254 340.922882,269.030304 
	C340.922882,269.030304 340.984772,269.010468 340.992706,268.567688 
	C341.002533,258.479431 340.899933,248.832535 341.030182,239.188782 
	C341.238739,223.749161 341.601715,208.311630 341.899414,192.873215 
	C341.899414,192.873215 341.986511,192.973099 342.370300,192.974228 
	C344.214600,192.972000 345.675049,192.968643 347.135529,192.965286 
	C347.456604,192.984314 347.706360,193.127640 348.098846,193.836655 
	C348.581787,194.519165 348.850708,194.760269 349.119629,195.001373 
	C349.119629,195.001358 349.005829,194.983994 349.118347,195.146469 
	C349.393738,195.591187 349.594330,195.843430 349.832703,196.065659 
z" data-index="7" style="opacity: 1; visibility: visible; fill: rgb(27, 197, 205); stroke: rgb(27, 197, 205);"></path>
<path fill="#50CDCA" opacity="1.000000" stroke="none" d="
M239.972778,221.128021 
	C239.974274,229.266663 239.625351,236.941788 240.053680,244.573273 
	C240.825714,258.328247 224.199448,270.969574 213.609161,271.339966 
	C200.067490,271.813568 187.419540,261.490387 184.651520,250.132019 
	C184.308411,248.724075 184.047302,247.255753 184.037827,245.813522 
	C183.982147,237.326309 184.516647,228.801788 183.901230,220.359161 
	C182.849686,205.933228 195.886475,193.139816 208.361694,192.094376 
	C224.878571,190.710251 236.094223,200.112839 239.890411,215.167847 
	C240.324890,216.890869 239.964523,218.814316 239.972778,221.128021 
M195.015533,211.870773 
	C191.531433,223.020645 193.138458,234.431229 193.373413,245.759247 
	C193.412018,247.620544 194.048340,249.571320 194.818619,251.297729 
	C197.977905,258.378601 205.309677,262.515442 213.430618,261.993011 
	C219.801743,261.583099 228.999664,255.359558 229.675766,249.095749 
	C230.784821,238.820740 230.413177,228.378265 230.477798,218.005249 
	C230.489334,216.151611 229.856857,214.169327 229.065918,212.457016 
	C225.758316,205.296616 219.621399,201.289001 212.176758,201.269287 
	C205.236191,201.250916 198.941574,204.433426 195.015533,211.870773 
z" data-index="8" style="opacity: 1; visibility: visible; fill: rgb(27, 197, 205); stroke: rgb(27, 197, 205);"></path>
<path fill="#4ECCCA" opacity="1.000000" stroke="none" d="
M264.310181,192.277740 
	C269.459686,191.454178 271.176483,193.580048 271.051758,198.325272 
	C270.807129,207.633957 270.979858,216.953598 270.979858,226.642334 
	C283.562103,226.642334 295.948792,226.642334 309.007202,226.642334 
	C309.007202,217.190872 309.067749,207.602707 308.972626,198.016068 
	C308.941528,194.883652 308.702332,192.025177 313.162567,191.998947 
	C317.714233,191.972168 318.021759,194.776443 318.012054,198.274658 
	C317.949310,220.921631 317.897552,243.569412 318.054779,266.215424 
	C318.079224,269.739868 316.688110,270.931885 313.553345,270.971619 
	C310.447784,271.011017 308.838501,270.002197 308.925568,266.369385 
	C309.163971,256.421936 309.007690,246.465057 309.007690,236.255386 
	C296.222412,236.255386 283.836823,236.255386 270.983978,236.255386 
	C270.983978,246.392715 270.830872,256.340942 271.065308,266.280029 
	C271.149689,269.856964 269.614105,271.002594 266.487549,270.986969 
	C263.400391,270.971497 261.895050,269.909821 261.922516,266.291718 
	C262.098022,243.146347 261.981903,219.998840 262.101410,196.852768 
	C262.108917,195.401093 263.297302,193.955536 264.310181,192.277740 
z" data-index="9" style="opacity: 1; visibility: visible; fill: rgb(27, 197, 205); stroke: rgb(27, 197, 205);"></path>
<path fill="#50CDCA" opacity="1.000000" stroke="none" d="
M153.761505,192.009949 
	C161.081024,192.132019 161.961166,192.987274 161.968292,199.655731 
	C161.984680,214.981003 162.010208,230.306320 161.985992,245.631531 
	C161.966309,258.086395 148.573990,270.324127 136.096909,271.208527 
	C122.003044,272.207489 109.294235,261.633179 106.792778,250.288101 
	C106.305580,248.078491 106.218536,245.775940 106.012283,243.510315 
	C105.775993,240.914780 106.130386,238.914581 109.576828,238.970657 
	C112.620033,239.020172 114.523659,239.771942 115.054321,243.194687 
	C115.518196,246.186676 116.336967,249.219833 117.571892,251.978302 
	C121.513557,260.782806 129.765427,262.993896 136.377228,261.879669 
	C144.103958,260.577515 150.122055,255.273651 151.788605,247.467209 
	C153.145935,241.109116 152.844879,234.363907 152.972000,227.784409 
	C153.141632,219.005463 153.013931,210.220779 153.013931,200.990692 
	C138.932846,200.990692 125.317108,201.086639 111.706429,200.867630 
	C110.030304,200.840652 107.850464,199.519943 106.829796,198.122574 
	C104.685196,195.186462 106.609314,192.050308 110.314453,192.039825 
	C124.640236,191.999252 138.966171,192.013489 153.761505,192.009949 
z" data-index="10" style="opacity: 1; visibility: visible; fill: rgb(27, 197, 205); stroke: rgb(27, 197, 205);"></path>
<path fill="#4CCECA" opacity="1.000000" stroke="none" d="
M190.197083,332.845612 
	C190.197083,330.389130 190.197083,327.932617 190.197083,325.238831 
	C230.629303,325.238831 270.976105,325.238831 311.940216,325.238831 
	C311.940216,327.452209 311.940216,329.693085 311.382111,332.478699 
	C303.679565,333.017670 296.535156,333.016479 289.390717,333.005310 
	C256.326172,332.953613 223.261627,332.899109 190.197083,332.845612 
z" data-index="11" style="opacity: 1; visibility: visible; fill: rgb(27, 197, 205); stroke: rgb(27, 197, 205);"></path>
<path fill="#4ACECA" opacity="1.000000" stroke="none" d="
M291.021881,348.805481 
	C261.910522,348.805511 232.799164,348.805511 203.029739,348.805511 
	C203.029739,346.507507 203.029739,344.257599 203.561249,341.535675 
	C233.577316,341.042358 263.061890,341.020447 292.546478,341.002747 
	C293.378845,341.002258 294.459290,340.724792 294.992432,341.136017 
	C296.134247,342.016754 297.711304,343.229462 297.766449,344.371124 
	C297.821808,345.516510 296.470886,347.096680 295.318634,347.830933 
	C294.152802,348.573853 292.475281,348.513794 291.021881,348.805481 
z" data-index="12" style="opacity: 1; visibility: visible; fill: rgb(27, 197, 205); stroke: rgb(27, 197, 205);"></path>
<path fill="#4FC6C2" opacity="1.000000" stroke="none" d="
M83.908646,316.593994 
	C83.227364,314.654785 82.087242,312.304413 82.082680,309.951782 
	C81.981216,257.700897 81.961975,205.449600 82.107452,153.198898 
	C82.116623,149.903778 83.596123,146.612778 84.735260,143.184555 
	C84.718987,145.421814 84.359032,147.794357 83.660400,150.903412 
	C83.214447,152.959381 83.013779,154.278824 83.013351,155.598343 
	C82.997025,206.147980 82.991302,256.697601 83.034363,307.247223 
	C83.035721,308.838531 83.565331,310.429413 83.848679,312.020477 
	C83.892021,313.407562 83.935371,314.794647 83.908646,316.593994 
z" data-index="13"></path>
<path fill="#AAFFFF" opacity="1.000000" stroke="none" d="
M418.091064,151.403076 
	C418.443634,152.529297 418.958832,154.127213 418.960144,155.725555 
	C419.002502,206.459885 418.998596,257.194244 418.977631,307.928589 
	C418.977020,309.409271 418.716675,310.889801 418.414124,312.767700 
	C418.166992,311.672638 418.010223,310.180237 418.010010,308.687866 
	C418.002258,256.416901 418.009247,204.145935 418.091064,151.403076 
z" data-index="14" style="opacity: 1;"></path>
<path fill="#AAFFFF" opacity="1.000000" stroke="none" d="
M83.918053,311.552124 
	C83.565331,310.429413 83.035721,308.838531 83.034363,307.247223 
	C82.991302,256.697601 82.997025,206.147980 83.013351,155.598343 
	C83.013779,154.278824 83.214447,152.959381 83.585953,151.314148 
	C83.900299,178.583710 83.970375,206.178986 83.994759,233.774307 
	C84.017532,259.544098 83.991806,285.313934 83.918053,311.552124 
z" data-index="15"></path>
<path fill="#ABFEFE" opacity="1.000000" stroke="none" d="
M190.241455,333.296967 
	C223.261627,332.899109 256.326172,332.953613 289.390717,333.005310 
	C296.535156,333.016479 303.679565,333.017670 311.259369,332.903015 
	C310.641663,333.188202 309.589142,333.946869 308.535492,333.948425 
	C269.440796,334.006165 230.346024,333.994476 191.251251,333.981110 
	C190.929413,333.981018 190.607635,333.829254 190.241455,333.296967 
z" data-index="16" style="opacity: 1;"></path>
<path fill="#6FCECD" opacity="1.000000" stroke="none" d="
M92.476837,123.062531 
	C94.258003,122.750694 96.503716,122.058487 98.750816,122.053909 
	C131.559280,121.987152 164.367950,122.018349 197.176559,122.010506 
	C204.029449,122.008873 204.029449,121.979721 203.978531,114.605629 
	C204.438995,116.893295 204.917221,119.612709 205.513260,123.001938 
	C167.446930,123.001938 130.194473,123.001938 92.476837,123.062531 
z" data-index="17"></path>
<path fill="#71CECF" opacity="1.000000" stroke="none" d="
M409.873260,129.615097 
	C372.772369,129.994232 335.439728,129.997284 297.650940,130.006958 
	C297.977203,129.679764 298.759308,129.054840 299.542114,129.053940 
	C335.750519,129.012085 371.958954,129.023804 408.167419,129.039520 
	C408.658813,129.039734 409.150146,129.169647 409.873260,129.615097 
z" data-index="18" style="opacity: 1;"></path>
<path fill="#71CECF" opacity="1.000000" stroke="none" d="
M297.306580,122.389145 
	C331.769318,121.977119 366.348114,121.969978 400.926849,122.021431 
	C403.719269,122.025581 406.511078,122.431953 409.640503,122.891258 
	C374.114105,123.081795 338.250397,123.034698 302.386688,122.976082 
	C300.731903,122.973373 299.077301,122.867149 297.306580,122.389145 
z" data-index="19" style="opacity: 1;"></path>
<path fill="#66CBCB" opacity="1.000000" stroke="none" d="
M291.468750,348.877686 
	C292.475281,348.513794 294.152802,348.573853 295.318634,347.830933 
	C296.470886,347.096680 297.821808,345.516510 297.766449,344.371124 
	C297.711304,343.229462 296.134247,342.016754 294.992432,341.136017 
	C294.459290,340.724792 293.378845,341.002258 292.546478,341.002747 
	C263.061890,341.020447 233.577316,341.042358 203.636703,341.097473 
	C203.764343,340.763947 204.347473,340.076080 204.931747,340.075104 
	C236.125809,340.023193 267.319977,340.029205 298.758331,340.029205 
	C298.758331,342.995117 298.758331,345.723999 298.758331,348.949921 
	C296.441986,348.949921 294.178802,348.949921 291.468750,348.877686 
z" data-index="20" style="opacity: 1;"></path>
<path fill="#79CECE" opacity="1.000000" stroke="none" d="
M203.747345,129.548920 
	C168.536514,129.943481 133.104950,129.976547 97.673378,129.980835 
	C96.360184,129.980988 95.046967,129.700592 93.368111,129.360260 
	C129.843842,129.173904 166.685226,129.178238 203.747345,129.548920 
z" data-index="21"></path>
<path fill="#68C3C3" opacity="1.000000" stroke="none" d="
M341.527679,193.049225 
	C341.601715,208.311630 341.238739,223.749161 341.030182,239.188782 
	C340.899933,248.832535 341.002533,258.479431 340.980713,268.597900 
	C340.634857,267.723877 340.028442,266.377655 340.024933,265.029846 
	C339.966614,242.625305 339.960968,220.220490 340.034637,197.816025 
	C340.039673,196.284546 340.765381,194.755432 341.527679,193.049225 
z" data-index="22"></path>
<path fill="#6FCECD" opacity="1.000000" stroke="none" d="
M215.601135,90.089798 
	C215.984711,102.029381 215.651596,114.200600 216.111603,126.341759 
	C216.352097,132.688995 217.986618,138.983429 218.952118,145.702423 
	C216.001511,142.412994 214.820374,138.339920 214.923767,133.531052 
	C215.233429,119.128273 215.146011,104.716949 215.601135,90.089798 
z" data-index="23"></path>
<path fill="#66CBCB" opacity="1.000000" stroke="none" d="
M286.920929,137.578751 
	C286.563965,134.968353 286.045044,131.889435 286.054810,128.812210 
	C286.087891,118.456909 286.309052,108.102203 286.647400,97.383606 
	C286.891418,110.383629 286.946320,123.747322 286.920929,137.578751 
z" data-index="24"></path>
<path fill="#71CECF" opacity="1.000000" stroke="none" d="
M380.105835,407.360291 
	C380.120270,411.814453 380.014771,416.697540 379.995270,421.580933 
	C379.973511,427.029327 380.029877,432.477997 380.088745,438.383362 
	C379.822845,438.763672 379.255890,438.688354 379.255554,438.610565 
	C379.213226,428.911835 379.198761,419.212921 379.244781,409.514252 
	C379.247498,408.938080 379.752563,408.364288 380.105835,407.360291 
z" data-index="25"></path>
<path fill="#70CECA" opacity="1.000000" stroke="none" d="
M119.469345,438.867584 
	C120.022621,436.937134 121.785942,435.112885 121.871559,433.213013 
	C122.206757,425.774231 122.012138,418.311584 122.015549,410.382690 
	C122.345512,412.400604 122.904228,414.888641 122.957855,417.387543 
	C123.092354,423.654633 122.864212,429.930786 123.059959,436.194611 
	C123.141548,438.805420 122.075638,439.305969 119.469345,438.867584 
z" data-index="26"></path>
<path fill="#70CECA" opacity="1.000000" stroke="none" d="
M344.302979,325.058044 
	C344.139160,321.662567 346.003723,319.634216 349.852539,319.014771 
	C348.361420,320.975281 346.485382,322.939636 344.302979,325.058044 
z" data-index="27" style="opacity: 1;"></path>
<path fill="#70CECA" opacity="1.000000" stroke="none" d="
M336.323242,332.941467 
	C337.464478,331.393066 338.910797,329.718903 340.723358,328.046692 
	C339.602539,329.637695 338.115417,331.226715 336.323242,332.941467 
z" data-index="28"></path>
<path fill="#68C3C3" opacity="1.000000" stroke="none" d="
M346.949646,192.628967 
	C345.675049,192.968643 344.214600,192.972000 342.317139,192.934784 
	C343.508026,192.693695 345.135895,192.493164 346.949646,192.628967 
z" data-index="29"></path>
<path fill="#70CECA" opacity="1.000000" stroke="none" d="
M351.318481,318.073181 
	C351.497498,317.236847 351.979645,316.242615 352.798798,315.144806 
	C352.631073,315.999237 352.126343,316.957306 351.318481,318.073181 
z" data-index="30"></path>
<path fill="#4FC6C2" opacity="1.000000" stroke="none" d="
M88.376556,140.060211 
	C88.608414,139.663696 89.154015,139.234634 89.906754,138.952866 
	C89.639343,139.409317 89.164818,139.718491 88.376556,140.060211 
z" data-index="31"></path>
<path fill="#70CECA" opacity="1.000000" stroke="none" d="
M355.391693,313.076172 
	C355.530243,312.484924 356.019592,311.843506 356.818451,311.121277 
	C356.666138,311.702271 356.204315,312.364136 355.391693,313.076172 
z" data-index="32"></path>
<path fill="#70CECA" opacity="1.000000" stroke="none" d="
M341.321594,327.984772 
	C341.539398,327.444977 342.047455,326.795959 342.877808,326.074280 
	C342.670654,326.626251 342.141266,327.250885 341.321594,327.984772 
z" data-index="33"></path>
<path fill="#68C3C3" opacity="1.000000" stroke="none" d="
M341.023438,269.315063 
	C341.554474,269.441254 342.186035,269.852234 342.926636,270.539673 
	C342.398438,270.410675 341.761200,270.005249 341.023438,269.315063 
z" data-index="34"></path>
<path fill="#70CECA" opacity="1.000000" stroke="none" d="
M121.887634,408.746277 
	C121.562088,408.535675 121.320099,407.996552 121.045395,407.159943 
	C121.332184,407.380890 121.651695,407.899323 121.887634,408.746277 
z" data-index="35"></path>
<path fill="#70CECA" opacity="1.000000" stroke="none" d="
M334.344421,334.027283 
	C334.517700,333.760010 335.004120,333.449036 335.777893,333.077271 
	C335.596008,333.338867 335.126770,333.661224 334.344421,334.027283 
z" data-index="36"></path>
<path fill="#70CECA" opacity="1.000000" stroke="none" d="
M354.269653,314.033691 
	C354.223694,313.845398 354.456268,313.579895 354.898407,313.151825 
	C354.921356,313.311676 354.734772,313.634094 354.269653,314.033691 
z" data-index="37"></path>
<path fill="#4FC6C2" opacity="1.000000" stroke="none" d="
M87.301590,141.019363 
	C87.259827,140.845718 87.474937,140.584366 87.898514,140.174316 
	C87.924133,140.327621 87.741302,140.629639 87.301590,141.019363 
z" data-index="38"></path>
<path fill="#4FC6C2" opacity="1.000000" stroke="none" d="
M85.285019,143.006287 
	C85.246666,142.831177 85.465942,142.575409 85.895775,142.179306 
	C85.918434,142.334518 85.730545,142.630081 85.285019,143.006287 
z" data-index="39"></path>
<path fill="#6FCECD" opacity="1.000000" stroke="none" d="
M218.975983,146.292572 
	C219.184616,146.246201 219.451218,146.484711 219.853348,146.957764 
	C219.670578,146.987350 219.352249,146.782410 218.975983,146.292572 
z" data-index="40"></path>
<path fill="#6FCECD" opacity="1.000000" stroke="none" d="
M221.952789,149.264862 
	C222.133087,149.149994 222.412720,149.316284 222.863617,149.665909 
	C222.720535,149.725891 222.392929,149.624817 221.952789,149.264862 
z" data-index="41"></path>
<path fill="#70CECA" opacity="1.000000" stroke="none" d="
M353.270630,315.032776 
	C353.225067,314.844574 353.458038,314.579620 353.900452,314.152100 
	C353.923004,314.311707 353.736084,314.633881 353.270630,315.032776 
z" data-index="42"></path>
<path fill="#70CECA" opacity="1.000000" stroke="none" d="
M357.268433,311.031616 
	C357.224243,310.844421 357.458313,310.579651 357.901978,310.152039 
	C357.923309,310.310791 357.735016,310.632416 357.268433,311.031616 
z" data-index="43"></path>
<path fill="#70CECA" opacity="1.000000" stroke="none" d="
M358.268372,310.033325 
	C358.224182,309.846680 358.457977,309.581299 358.901154,309.152466 
	C358.922516,309.310852 358.734467,309.632721 358.268372,310.033325 
z" data-index="44"></path>
<path fill="#70CECA" opacity="1.000000" stroke="none" d="
M359.268188,309.032806 
	C359.223755,308.846375 359.457092,308.581085 359.899475,308.152344 
	C359.920959,308.310608 359.733459,308.632263 359.268188,309.032806 
z" data-index="45"></path>
<path fill="#70CECA" opacity="1.000000" stroke="none" d="
M360.267822,308.031128 
	C360.223297,307.844879 360.456177,307.580048 360.897705,307.152039 
	C360.919250,307.310089 360.732239,307.631317 360.267822,308.031128 
z" data-index="46"></path>
<path fill="#70CECA" opacity="1.000000" stroke="none" d="
M361.267487,307.028870 
	C361.225067,306.842804 361.460449,306.578735 361.905975,306.151794 
	C361.925842,306.309570 361.735565,306.630219 361.267487,307.028870 
z" data-index="47"></path>
<path fill="#70CECA" opacity="1.000000" stroke="none" d="
M362.269531,306.037476 
	C362.224487,305.849884 362.458618,305.583893 362.901855,305.153564 
	C362.923553,305.312500 362.736145,305.635773 362.269531,306.037476 
z" data-index="48"></path>
<path fill="#70CECA" opacity="1.000000" stroke="none" d="
M363.268677,305.037109 
	C363.220978,304.850647 363.449829,304.583557 363.886475,304.153595 
	C363.911285,304.312622 363.728241,304.634521 363.268677,305.037109 
z" data-index="49"></path>
<path fill="#70CECA" opacity="1.000000" stroke="none" d="
M364.270081,304.023132 
	C364.224030,303.833435 364.455719,303.570953 364.897278,303.149414 
	C364.920685,303.310333 364.734253,303.630341 364.270081,304.023132 
z" data-index="50"></path>
<path fill="#70CECA" opacity="1.000000" stroke="none" d="
M365.262817,303.026825 
	C365.221710,302.842560 365.453522,302.585754 365.895172,302.174866 
	C365.915253,302.331970 365.725494,302.643127 365.262817,303.026825 
z" data-index="51"></path>
<path fill="#68C3C3" opacity="1.000000" stroke="none" d="
M349.045227,194.719955 
	C348.850708,194.760269 348.581787,194.519165 348.165710,194.048920 
	C348.335968,194.026031 348.653412,194.232285 349.045227,194.719955 
z" data-index="52"></path>
<path fill="#68C3C3" opacity="1.000000" stroke="none" d="
M349.881104,195.784302 
	C349.594330,195.843430 349.393738,195.591187 349.127258,195.089600 
	C349.325623,195.081146 349.627563,195.292038 349.881104,195.784302 
z" data-index="53"></path>


<path fill="#51CDCA" opacity="1.000000" stroke="none" d="
M241.254089,111.791031 
	C235.130539,106.900429 232.962067,98.211967 236.033752,91.746910 
	C239.446579,84.563835 247.255890,81.123901 255.472595,83.184273 
	C261.926910,84.802727 266.998230,91.631874 266.986328,98.688911 
	C266.963226,112.368477 254.051529,119.148659 241.254089,111.791031 
M244.912949,97.371094 
	C245.355942,99.597992 245.200058,102.234009 246.378250,103.958664 
	C248.282761,106.746552 251.687469,107.028275 254.084656,104.825218 
	C255.831650,103.219704 257.393921,100.397354 257.379547,98.127998 
	C257.357697,94.683060 255.244629,91.368599 251.348267,91.226906 
	C248.206528,91.112663 245.449341,92.815620 244.912949,97.371094 
z" data-index="55" style="opacity: 1;"></path>

</svg>