<svg version="1.1" id="Layer_1" xmlns="http://www.w3.org/2000/svg" xmlns:xlink="http://www.w3.org/1999/xlink" x="0px" y="0px" width="100%" viewBox="0 0 512 512" enable-background="new 0 0 512 512" xml:space="preserve">

<path fill="#4AD0CC" opacity="1.000000" stroke="none" d="
M445.000702,295.023438 
	C445.000610,293.028412 445.000488,291.528625 445.000427,290.028839 
	C444.999817,276.253326 452.196472,268.986542 465.825836,269.000366 
	C475.188171,269.009857 481.374939,273.570862 484.176758,282.691437 
	C484.692047,284.368835 484.960724,286.190033 484.965515,287.945862 
	C485.019409,307.776215 484.654999,327.615265 485.145172,347.433655 
	C485.389435,357.308197 480.681763,363.245819 472.945221,368.040680 
	C451.174774,381.533203 429.551147,395.263245 407.737976,408.685699 
	C399.619629,413.681213 397.448975,421.362793 397.054047,429.957153 
	C396.772339,436.087341 396.999359,442.240936 396.999359,448.689636 
	C394.332336,448.689636 391.939972,448.689636 389.024780,448.689636 
	C389.024780,438.899384 388.081390,429.002930 389.273254,419.370636 
	C390.638367,408.338135 399.636841,402.621887 408.401947,397.215485 
	C425.934357,386.401367 443.388550,375.460449 460.875336,364.572357 
	C463.491730,362.943268 466.015045,361.133118 468.745789,359.725525 
	C475.131012,356.434326 476.919586,350.717163 476.962250,344.237915 
	C477.075317,327.074432 477.085449,309.909180 476.968781,292.745758 
	C476.899048,282.488403 470.465027,277.264984 464.310638,277.920563 
	C459.521515,278.430725 454.657349,282.136261 454.047241,286.898468 
	C453.506012,291.122955 453.091217,295.392090 453.045380,299.646118 
	C452.914337,311.809631 452.818268,323.979431 453.082672,336.138611 
	C453.199280,341.500763 450.840057,344.857910 446.415009,347.173126 
	C431.146637,355.161652 415.736359,362.891052 400.648468,371.206024 
	C395.209656,374.203339 390.051086,375.944061 383.912231,374.458313 
	C369.520508,370.975128 366.992493,352.281006 376.000580,343.486938 
	C381.842651,337.783661 387.334229,331.702026 393.395599,326.248749 
	C398.538788,321.621521 398.276917,313.356049 394.444977,308.789734 
	C390.002899,303.496368 381.087463,303.610291 376.334015,308.276337 
	C360.162170,324.150757 343.938812,339.993286 328.351074,356.432068 
	C322.090454,363.034485 318.021973,371.415741 318.009735,381.039703 
	C317.981171,403.451874 318.000610,425.864105 318.000610,448.637817 
	C314.426941,448.637817 312.032684,448.637817 309.000732,448.637817 
	C309.000732,447.012054 309.000732,445.242615 309.000702,443.473175 
	C309.000549,422.476196 308.956848,401.479065 309.017212,380.482269 
	C309.051666,368.496582 313.756805,358.176025 321.882385,349.766296 
	C337.396057,333.710022 353.503204,318.228577 369.115845,302.265808 
	C375.562134,295.674957 383.620972,294.465332 391.414673,296.498535 
	C399.363586,298.572235 404.772064,304.378601 406.180511,313.502014 
	C407.338745,321.004944 405.125000,326.939728 400.304962,332.112244 
	C394.855835,337.959900 389.016357,343.442841 383.376678,349.114258 
	C379.712311,352.799225 378.688660,358.466797 381.062469,361.544189 
	C384.882446,366.496399 388.405090,367.252350 394.380585,364.163605 
	C409.689301,356.250519 424.934265,348.213562 440.275024,340.363495 
	C443.859039,338.529510 445.053497,335.805664 445.029419,332.011627 
	C444.952240,319.847748 445.000702,307.683044 445.000702,295.023438 
z" data-index="1" style="opacity: 1; visibility: visible; fill: rgb(27, 197, 205); stroke: rgb(27, 197, 205);"></path>
<path fill="#4AD0CC" opacity="1.000000" stroke="none" d="
M69.856979,335.956543 
	C71.078682,337.344513 72.035988,339.225800 73.562950,340.044220 
	C89.028603,348.333679 104.570282,356.482147 120.129517,364.595642 
	C125.319412,367.301910 129.372360,366.212006 133.038467,361.411987 
	C135.117615,358.689758 134.282043,352.887207 131.189362,349.735901 
	C125.705048,344.147583 120.277733,338.490906 114.566879,333.139984 
	C103.328117,322.609558 105.289627,303.706024 120.376144,297.183990 
	C126.744743,294.430756 138.393082,295.973785 143.453751,301.003510 
	C159.762039,317.212158 176.288589,333.217316 192.133499,349.869446 
	C200.495773,358.657745 205.211044,369.460022 205.063904,382.119202 
	C204.825745,402.610779 204.999466,423.107117 204.999252,443.601440 
	C204.999237,445.233307 204.999252,446.865173 204.999252,448.745605 
	C202.227264,448.745605 199.836456,448.745605 197.000732,448.745605 
	C197.000732,436.942047 197.131271,425.318146 196.964233,413.698486 
	C196.795135,401.937042 196.757599,390.147186 195.859039,378.431396 
	C195.169678,369.443573 190.793777,361.580231 184.573349,355.197510 
	C169.456985,339.686768 153.961304,324.546387 138.715195,309.160980 
	C134.671997,305.080811 129.690582,303.914368 124.658913,305.323456 
	C119.801491,306.683746 116.594582,310.864746 116.724136,315.998535 
	C116.805222,319.211823 118.136848,323.025696 120.221001,325.432587 
	C125.551376,331.588379 131.529160,337.198761 137.409698,342.859283 
	C145.465256,350.613495 145.113510,365.209503 135.896500,371.642548 
	C129.987106,375.767090 123.828743,376.314941 117.472191,373.069305 
	C100.554390,364.431061 83.629585,355.801697 66.856018,346.889435 
	C62.975685,344.827698 60.801544,341.333221 60.902470,336.326263 
	C61.184475,322.335815 61.184143,308.332245 60.898952,294.341949 
	C60.802059,289.588745 60.419235,284.803711 56.468914,280.857605 
	C51.153236,275.547577 41.098305,277.415253 38.179127,285.828583 
	C37.240070,288.535034 37.066113,291.607910 37.048264,294.516296 
	C36.946999,311.011078 36.980930,327.506897 37.007763,344.002289 
	C37.019421,351.166779 39.508781,356.261749 46.298611,360.292450 
	C65.097298,371.452026 83.336433,383.554260 101.795250,395.286224 
	C105.479050,397.627563 109.189476,399.929047 112.829742,402.336426 
	C121.089951,407.799133 125.352859,415.324036 125.045670,425.423798 
	C124.813377,433.061035 124.999680,440.710999 124.999680,448.676056 
	C122.357742,448.676056 119.965088,448.676056 117.000748,448.676056 
	C117.000748,443.431213 116.831490,438.147461 117.034439,432.878082 
	C117.523003,420.192871 112.233650,411.657013 100.951820,405.182251 
	C81.684731,394.124664 63.108631,381.847382 44.428665,369.793579 
	C39.755409,366.778076 35.441483,362.987335 31.658594,358.907410 
	C29.909857,357.021362 29.136293,353.590363 29.110838,350.848785 
	C28.911278,329.356598 29.261599,307.856812 28.858971,286.370300 
	C28.718092,278.852295 38.558430,269.064484 46.628426,268.730957 
	C59.555550,268.196686 65.628220,275.660065 68.549873,283.095215 
	C69.304008,285.014374 69.311653,287.226837 69.521713,290.042969 
	C69.291824,305.232910 69.193291,319.684357 69.145004,334.135986 
	C69.142975,334.742035 69.609001,335.349670 69.856979,335.956543 
z" data-index="2" style="opacity: 1; visibility: visible; fill: rgb(27, 197, 205); stroke: rgb(27, 197, 205);"></path>
<path fill="#4AD0CC" opacity="1.000000" stroke="none" d="
M77.029099,147.659271 
	C80.896828,137.180374 87.813400,132.709702 98.931854,132.845169 
	C133.591415,133.267456 168.259384,133.000015 202.924088,133.000031 
	C204.736450,133.000031 206.548828,133.000031 208.679382,133.000031 
	C208.679382,135.650467 208.679382,138.039001 208.679382,140.999969 
	C206.921936,140.999969 205.143661,140.999969 203.365387,140.999969 
	C169.533966,140.999969 135.701981,140.911179 101.871925,141.126053 
	C98.152672,141.149673 94.093933,142.263977 90.815872,144.029526 
	C86.253426,146.486816 85.059334,151.471100 85.051964,156.317764 
	C84.970154,210.147919 84.699173,263.981384 85.263191,317.805786 
	C85.371666,328.157166 86.751236,331.503906 102.765518,333.380676 
	C102.765518,335.757935 102.765518,338.163483 102.765518,340.533630 
	C89.820351,342.757172 82.989433,338.697937 78.682953,330.093079 
	C77.635445,328.000061 77.070938,325.433533 77.067535,323.083618 
	C76.983017,264.753693 77.003853,206.423630 77.029099,147.659271 
z" data-index="3" style="opacity: 1; visibility: visible; fill: rgb(27, 197, 205); stroke: rgb(27, 197, 205);"></path>
<path fill="#4AD0CC" opacity="1.000000" stroke="none" d="
M437.000000,202.000000 
	C437.000061,242.311432 437.000214,282.122864 437.000092,321.934296 
	C437.000031,333.271027 429.306274,340.999390 418.020599,341.000183 
	C415.879272,341.000336 413.737915,341.000214 411.299469,341.000214 
	C411.299469,338.319794 411.299469,335.924133 411.299469,333.386200 
	C413.216156,333.071594 415.117462,332.772369 417.014130,332.445984 
	C426.745728,330.771332 428.891907,324.292328 428.946228,316.691162 
	C429.099854,295.204071 429.000000,273.715210 429.000000,252.227036 
	C429.000000,220.744354 429.142365,189.260223 428.825714,157.780731 
	C428.784668,153.697922 427.064270,149.214600 424.887299,145.676331 
	C422.166779,141.254639 416.894501,141.038177 412.123474,141.030167 
	C378.308838,140.973434 344.494080,140.999969 310.679352,140.999969 
	C309.026245,140.999969 307.373138,140.999969 305.360626,140.999969 
	C305.360626,138.423279 305.360626,136.035980 305.360626,133.000031 
	C306.985260,133.000031 308.753784,133.000046 310.522308,133.000031 
	C346.335938,132.999939 382.149567,132.996155 417.963196,133.001984 
	C429.254791,133.003815 436.992188,140.739960 436.997955,152.027252 
	C437.006378,168.518173 437.000031,185.009079 437.000000,202.000000 
z" data-index="4" style="opacity: 1; visibility: visible; fill: rgb(27, 197, 205); stroke: rgb(27, 197, 205);"></path>
<path fill="#4AD0CC" opacity="1.000000" stroke="none" d="
M292.999573,92.292297 
	C292.999634,108.425575 292.665161,124.101570 293.146423,139.752487 
	C293.373383,147.132950 283.175842,157.473999 275.675262,157.147537 
	C263.199646,156.604568 250.668442,156.633530 238.189560,157.137390 
	C230.756531,157.437515 220.548035,146.984329 220.838928,139.580109 
	C221.394592,125.436119 221.882797,111.185982 220.784195,97.105896 
	C219.305527,78.154541 238.440659,60.195435 256.905853,60.572361 
	C273.690979,60.915001 289.179749,72.843925 292.919708,89.331512 
	C293.100311,90.127663 292.979858,90.992096 292.999573,92.292297 
M285.000702,107.532318 
	C284.665466,103.126884 284.350769,98.719780 283.991364,94.316322 
	C282.611847,77.414253 266.683197,66.138214 249.889328,70.769783 
	C234.684830,74.963028 229.802414,85.624886 229.097305,100.722542 
	C228.593384,111.512543 228.435608,122.382408 229.149490,133.148605 
	C229.948090,145.192535 232.489334,147.880142 244.949539,148.881378 
	C252.883698,149.518936 260.917694,149.212494 268.894379,148.949295 
	C279.889191,148.586487 284.610962,143.807327 284.950226,132.977219 
	C285.205353,124.833481 285.000671,116.675331 285.000702,107.532318 
z" data-index="5" style="opacity: 1; visibility: visible; fill: rgb(27, 197, 205); stroke: rgb(27, 197, 205);"></path>
<path fill="#4AD0CC" opacity="1.000000" stroke="none" d="
M152.000061,263.868805 
	C152.000031,240.090134 152.000031,216.799286 152.000031,193.945190 
	C165.254623,193.945190 178.153519,193.285706 190.950790,194.143127 
	C202.232513,194.898987 208.384338,203.225174 211.851410,213.038147 
	C217.042145,227.729614 215.783279,242.213257 207.972305,255.812897 
	C203.879578,262.938721 197.046310,267.209778 189.221298,267.763611 
	C177.061417,268.624207 164.795792,267.991028 152.198029,267.991028 
	C152.157303,267.243317 152.078705,265.799988 152.000061,263.868805 
M202.134903,219.536255 
	C201.093719,211.673325 195.076462,204.078354 188.052292,203.197830 
	C179.923874,202.178894 171.675354,202.118118 163.269440,201.629166 
	C163.269440,221.190247 163.269440,239.911850 163.269440,258.994690 
	C169.994202,258.994690 176.490494,259.406647 182.913513,258.896423 
	C192.135971,258.163818 199.502777,253.896423 201.160095,244.192673 
	C202.501587,236.338181 202.250137,228.211639 202.134903,219.536255 
z" data-index="6" style="opacity: 1; visibility: visible; fill: rgb(27, 197, 205); stroke: rgb(27, 197, 205);"></path>
<path fill="#4AD0CC" opacity="1.000000" stroke="none" d="
M203.859100,124.999580 
	C169.567169,124.999596 135.759094,124.779053 101.958916,125.197388 
	C95.672623,125.275192 88.918198,126.891518 83.268799,129.631042 
	C75.253029,133.518066 70.240341,140.818756 70.094223,150.012283 
	C69.531853,185.393234 69.332863,220.779953 69.001755,256.164551 
	C68.984932,257.962463 68.999588,259.760681 68.999588,261.768280 
	C66.304085,261.768280 64.026184,261.768280 61.330086,261.768280 
	C61.228790,260.651276 61.015667,259.393433 61.015049,258.135468 
	C60.997017,221.499130 60.796215,184.861115 61.097630,148.227264 
	C61.222958,132.995102 76.511490,117.358231 91.550758,117.165642 
	C130.012558,116.673119 168.484924,117.006195 206.953064,117.018982 
	C207.432068,117.019142 207.911041,117.150101 208.689789,117.263741 
	C208.689789,119.665863 208.689789,122.057129 208.689789,124.768898 
	C207.245255,124.845604 205.795456,124.922585 203.859100,124.999580 
z" data-index="7" style="opacity: 1; visibility: visible; fill: rgb(27, 197, 205); stroke: rgb(27, 197, 205);"></path>
<path fill="#4AD0CC" opacity="1.000000" stroke="none" d="
M452.999634,248.988739 
	C452.999634,253.462265 452.999634,257.437714 452.999634,261.702820 
	C450.307617,261.702820 447.915497,261.702820 445.000366,261.702820 
	C445.000366,259.866913 445.000366,258.083313 445.000366,256.299744 
	C445.000366,223.466690 445.139038,190.632690 444.915558,157.801163 
	C444.848816,147.994751 443.051239,138.243820 434.330170,132.106537 
	C430.251404,129.236176 425.068359,126.364784 420.324463,126.259521 
	C384.087250,125.455399 347.834900,125.332764 311.587250,125.001938 
	C309.607422,124.983871 307.627289,124.999603 305.325012,124.999603 
	C305.325012,122.359993 305.325012,119.966820 305.325012,117.000427 
	C306.904022,117.000427 308.514648,117.000435 310.125275,117.000435 
	C346.958282,117.000320 383.791321,116.993027 420.624329,117.003372 
	C436.829834,117.007919 452.971527,133.172424 452.989227,149.491577 
	C453.025055,182.491241 452.999725,215.490967 452.999634,248.988739 
z" data-index="8" style="opacity: 1; visibility: visible; fill: rgb(27, 197, 205); stroke: rgb(27, 197, 205);"></path>
<path fill="#4AD0CC" opacity="1.000000" stroke="none" d="
M282.670105,198.174713 
	C299.159210,211.123383 300.022217,234.361557 292.985504,250.903046 
	C287.631653,263.488464 269.416504,272.664642 255.748245,269.920776 
	C239.385315,266.635986 228.688156,257.336212 225.524399,240.870163 
	C222.861221,227.009277 224.188782,213.357086 234.280930,202.410507 
	C242.465210,193.533310 252.858917,190.257111 265.189270,191.728455 
	C271.651001,192.499512 276.998718,194.942413 282.670105,198.174713 
M250.575699,258.121582 
	C263.250031,263.230591 275.847565,259.367676 281.839874,248.592743 
	C286.757782,239.749710 286.820953,230.235382 285.001099,220.536026 
	C283.211365,210.997040 273.400208,201.833984 264.460297,200.948029 
	C251.110718,199.625076 239.480194,208.189087 237.964767,217.248032 
	C236.998611,223.023666 236.219894,228.890793 236.090820,234.733124 
	C235.860596,245.153442 240.968262,252.742905 250.575699,258.121582 
z" data-index="9" style="opacity: 1; visibility: visible; fill: rgb(27, 197, 205); stroke: rgb(27, 197, 205);"></path>
<path fill="#4AD0CC" opacity="1.000000" stroke="none" d="
M320.000092,254.835968 
	C319.382629,258.603119 321.058105,259.087036 323.930511,259.059570 
	C337.734070,258.927460 351.539581,259.000183 365.671448,259.000183 
	C365.671448,262.296814 365.671448,265.355957 365.671448,268.999512 
	C358.769440,268.999512 351.831482,268.999573 344.893524,268.999512 
	C334.400482,268.999420 323.906403,268.917053 313.415039,269.049194 
	C310.275482,269.088745 308.930939,268.193451 308.946289,264.819122 
	C309.052429,241.501724 309.006622,218.183670 309.024414,194.865829 
	C309.024750,194.400757 309.204346,193.935837 309.346588,193.246460 
	C327.796204,193.246460 346.183533,193.246460 364.784943,193.246460 
	C364.784943,196.069321 364.784943,198.681046 364.784943,201.768982 
	C350.121979,201.768982 335.388763,201.768982 320.330292,201.768982 
	C320.330292,209.291351 320.330292,216.349152 320.330292,223.998154 
	C331.401917,223.998154 342.498077,223.998138 353.594238,223.998169 
	C362.755066,223.998199 362.755066,223.998230 361.548553,233.839264 
	C347.981934,233.839264 334.371948,233.839264 320.000000,233.839264 
	C320.000000,240.859909 320.000000,247.606644 320.000092,254.835968 
z" data-index="10" style="opacity: 1; visibility: visible; fill: rgb(27, 197, 205); stroke: rgb(27, 197, 205);"></path>
<path fill="#4AD0CC" opacity="1.000000" stroke="none" d="
M225.000000,341.000000 
	C214.871368,341.000000 205.242737,341.000000 195.307617,341.000000 
	C195.307617,338.336823 195.307617,335.946075 195.307617,333.273438 
	C236.336960,333.273438 277.359467,333.273438 318.692078,333.273438 
	C318.692078,335.662628 318.692078,338.053406 318.692078,341.000000 
	C287.625458,341.000000 256.562744,341.000000 225.000000,341.000000 
z" data-index="11" style="opacity: 1; visibility: visible; fill: rgb(27, 197, 205); stroke: rgb(27, 197, 205);"></path>
<path fill="#4AD0CC" opacity="1.000000" stroke="none" d="
M227.000549,349.000000 
	C253.433548,349.000000 279.366638,349.000000 305.649384,349.000000 
	C305.649384,351.589050 305.649384,353.980255 305.649384,356.690338 
	C273.410889,356.690338 241.055557,356.690338 208.349274,356.690338 
	C208.349274,354.411743 208.349274,352.020203 208.349274,349.000000 
	C214.309570,349.000000 220.405106,349.000000 227.000549,349.000000 
z" data-index="12" style="opacity: 1; visibility: visible; fill: rgb(27, 197, 205); stroke: rgb(27, 197, 205);"></path>
<path fill="#55FFFF" opacity="1.000000" stroke="none" d="
M69.921608,335.494568 
	C69.609001,335.349670 69.142975,334.742035 69.145004,334.135986 
	C69.193291,319.684357 69.291824,305.232910 69.593636,290.435852 
	C69.866119,305.071075 69.926186,320.051849 69.921608,335.494568 
z" data-index="13"></path>

<path fill="#000000" opacity="1.000000" stroke="none" d="
M202.420074,219.871002 
	C202.250137,228.211639 202.501587,236.338181 201.160095,244.192673 
	C199.502777,253.896423 192.135971,258.163818 182.913513,258.896423 
	C176.490494,259.406647 169.994202,258.994690 163.269440,258.994690 
	C163.269440,239.911850 163.269440,221.190247 163.269440,201.629166 
	C171.675354,202.118118 179.923874,202.178894 188.052292,203.197830 
	C195.076462,204.078354 201.093719,211.673325 202.420074,219.871002 
z" data-index="15" style="opacity: 1; visibility: hidden;"></path>

<path fill="#4AD0CC" opacity="1.000000" stroke="none" d="
M256.103943,116.999786 
	C245.967941,116.908951 240.939148,110.780640 241.000275,99.139091 
	C241.042618,91.078529 247.434814,85.017471 255.911804,85.000076 
	C264.963409,84.981506 269.898926,87.961189 272.547485,95.043442 
	C274.783142,101.021561 272.758667,109.179497 267.924835,113.600365 
	C264.686035,116.562454 260.800323,117.397987 256.103943,116.999786 
M261.221161,106.954559 
	C264.361664,104.629265 264.800323,101.279160 263.432648,98.162376 
	C262.660248,96.402229 260.186554,94.236000 258.534821,94.281281 
	C255.980576,94.351311 252.435913,95.503677 251.234406,97.409500 
	C249.993652,99.377563 250.162430,103.248924 251.302124,105.474770 
	C253.201340,109.183937 256.991699,108.504974 261.221161,106.954559 
z" data-index="17" style="opacity: 1; visibility: visible; fill: rgb(27, 197, 205); stroke: rgb(27, 197, 205);"></path>

</svg>